<?xml version="1.0" encoding="utf-8"?>
<!DOCTYPE svg PUBLIC "-//W3C//DTD SVG 1.0//EN" "http://www.w3.org/TR/2001/REC-SVG-20010904/DTD/svg10.dtd">
<svg version="1.0" xmlns="http://www.w3.org/2000/svg" width="594px" height="594px" viewBox="0 0 594 594" preserveAspectRatio="xMidYMid meet">
 <g fill="#aa87f3">
  <path d="M226.23 573.87 c-0.46 -0.17 -1.51 -0.87 -2.20 -1.57 -2.67 -2.38 -3.02 -3.83 -3.02 -12.36 0 -9.34 0.58 -10.79 4.76 -12.88 2.26 -1.04 3.60 -1.22 10.62 -1.22 7.02 0 8.35 0.17 10.62 1.22 2.55 1.28 4.70 4.47 3.89 5.74 -0.58 0.93 -5.45 0.64 -7.02 -0.35 -1.16 -0.81 -2.61 -0.93 -8.12 -0.70 -8.59 0.35 -8.47 0.17 -8.24 8.76 0.23 8.06 0.06 7.95 9.28 7.95 6.84 0 6.90 0 7.43 -1.51 1.10 -2.84 0.87 -3.07 -3.60 -3.25 l-4.12 -0.17 0 -2.61 0 -2.61 7.31 -0.17 7.37 -0.17 0 5.57 c0 9.86 -1.22 10.73 -14.91 10.67 -5.05 0 -9.57 -0.17 -10.04 -0.35z"/>
  <path d="M285.98 568.07 l0 -6.26 -6.67 -7.54 c-3.65 -4.12 -6.61 -7.72 -6.67 -7.95 0 -0.29 1.68 -0.46 3.71 -0.46 l3.71 0 2.90 3.07 c1.57 1.62 3.71 4 4.81 5.28 l2.03 2.20 4.52 -5.28 4.47 -5.28 4.06 0 c2.20 0 4 0.17 4 0.35 0 0.41 -11.02 12.88 -12.70 14.39 -1.10 0.99 -1.22 1.68 -1.22 7.43 l0 6.26 -3.48 0 -3.48 0 0 -6.21z"/>
  <path d="M326 560.07 l0 -14.21 3.65 0 3.60 0 4.64 5.86 c2.55 3.19 5.05 6.38 5.57 7.02 0.93 1.16 1.10 0.99 6.67 -5.86 l5.68 -7.08 3.48 0.17 3.54 0.17 0.12 14.10 0.17 14.04 -3.48 0 -3.48 0 -0.12 -9.63 -0.17 -9.57 -5.39 6.67 c-3.02 3.71 -5.74 6.73 -6.15 6.73 -0.58 0 -6.09 -6.55 -10.44 -12.47 -0.81 -1.04 -0.87 -0.17 -0.93 8.59 l0 9.69 -3.48 0 -3.48 0 0 -14.21z"/>
  <path d="M79.35 556.47 l-30.05 -0.17 0 -1.74 0 -1.68 71.64 -0.06 71.64 0 0 2.03 0 2.03 -41.59 -0.12 c-22.91 -0.12 -55.17 -0.23 -71.64 -0.29z"/>
  <path d="M390.97 554.90 l0 -2.09 77.03 0.06 c42.35 0.06 78.37 0.23 80.05 0.35 2.38 0.23 3.02 0.52 3.02 1.28 0 0.99 -1.28 1.04 -16.07 1.39 -8.88 0.23 -44.90 0.58 -80.05 0.75 l-63.98 0.41 0 -2.15z"/>
  <path d="M418.53 519.75 c-10.50 -2.09 -17.81 -9.46 -19.43 -19.43 -0.29 -1.91 -0.58 -14.91 -0.58 -28.83 l0 -25.41 10.44 0 10.38 0 0.17 25.52 0.17 25.47 1.33 1.33 c1.28 1.33 1.57 1.33 14.68 1.33 13.34 0 13.40 0 14.50 -1.39 1.04 -1.28 1.10 -2.61 1.10 -26.80 l0 -25.47 10.44 0.12 10.44 0.17 0.17 21.75 c0.29 35.27 -0.23 38.98 -6.26 45.01 -6.26 6.26 -10.21 7.19 -30.45 7.13 -8.12 -0.06 -15.84 -0.29 -17.11 -0.52z"/>
  <path d="M484.95 483.21 l0 -37.13 29.35 0 c32.60 0 34.75 0.17 39.97 3.65 6.38 4.18 8.93 9.92 9.40 20.77 0.64 14.27 -2.26 21.87 -10.15 26.45 -4.70 2.78 -7.48 3.07 -28.95 3.07 l-19.90 0 0 10.15 0 10.15 -9.86 0 -9.86 0 0 -37.13z m54.64 -1.74 c1.22 -0.35 2.44 -1.10 2.78 -1.74 0.29 -0.58 0.58 -3.83 0.58 -7.13 0 -8.88 1.57 -8.24 -20.24 -8.24 l-17.75 0 -0.17 8.88 -0.17 8.82 16.42 0 c9.57 0 17.34 -0.23 18.56 -0.58z"/>
  <path d="M289.46 418.47 c-21 -1.91 -31.44 -3.94 -49.54 -9.63 -15.14 -4.76 -31.96 -12.65 -45.88 -21.52 -37.76 -24.02 -64.97 -57.31 -80.05 -97.80 -15.26 -41.01 -16.18 -87.01 -2.55 -128.20 5.28 -16.07 12.59 -30.98 22.27 -45.59 7.60 -11.49 14.27 -19.61 24.02 -29.29 17.81 -17.75 33.59 -29 56.04 -40.03 39.62 -19.49 83.07 -25.41 127.79 -17.40 36.60 6.55 74.71 25.93 100.06 50.93 7.19 7.08 7.19 7.08 2.15 7.08 l-4.12 0 -6.50 -5.68 c-29.53 -25.87 -62.13 -41.01 -101.92 -47.22 -7.48 -1.16 -10.50 -1.28 -27.84 -1.28 -17 0 -20.42 0.17 -27.32 1.22 -38.34 6.03 -73.38 21.93 -101.75 46.06 -7.43 6.32 -20.07 19.43 -25.87 26.92 -18.68 23.84 -31.09 50.93 -36.43 79.18 -5.05 26.92 -3.83 59.17 3.19 84.29 9.22 33.12 24.77 59.81 48.67 83.65 13.23 13.23 25.06 22.45 39.39 30.69 39.50 22.74 83.42 31.38 127.39 24.94 8.30 -1.22 24.42 -4.99 32.19 -7.54 30.28 -9.92 57.49 -26.63 79.53 -48.73 30.16 -30.34 48.78 -69.26 53.72 -112.48 1.04 -9.34 0.87 -34.22 -0.29 -43.22 -2.67 -20.42 -8.24 -39.50 -16.71 -57.31 l-3.42 -7.19 0.46 -5.86 0.41 -5.92 3.07 5.05 c11.31 18.62 19.95 45.71 23.44 73.26 1.10 8.93 0.93 34.86 -0.29 44.09 -7.08 52.61 -30.28 94.84 -70.60 128.31 -29.06 24.07 -67.70 40.49 -106.15 45.13 -7.48 0.87 -31.03 1.62 -36.54 1.10z"/>
  <path d="M247.11 374.90 c-4 -4.76 -9.28 -17.81 -10.56 -25.99 -0.35 -2.20 -0.70 -4.41 -0.81 -4.81 -0.12 -0.46 -1.28 0.12 -3.25 1.62 -3.31 2.61 -7.31 4.81 -10.04 5.45 -4.47 1.10 -13.81 -0.29 -12.82 -1.91 0.17 -0.29 2.32 -0.93 4.70 -1.51 13.69 -3.02 22.51 -12.41 26.68 -28.42 0.81 -3.13 1.51 -5.80 1.62 -5.86 0.06 -0.06 0.99 0.58 2.03 1.45 l1.86 1.57 -1.45 4.29 c-2.61 7.72 -3.36 12.82 -3.02 20.53 0.35 8.30 1.91 14.39 6.26 25 2.44 5.92 2.84 7.48 2.44 8.82 -0.75 2.26 -1.57 2.26 -3.65 -0.23z"/>
  <path d="M347.41 375.72 c-0.52 -1.10 -0.17 -2.26 1.68 -6.50 6.50 -14.85 10.09 -29.76 13.46 -55.69 0.64 -5.10 1.33 -10.04 1.57 -11.02 l0.41 -1.74 0.46 2.32 c0.29 1.28 0.64 7.60 0.87 14.04 0.35 11.25 0.41 11.72 1.57 12.01 0.70 0.17 5.16 0.35 9.92 0.35 17.46 0 37.36 -4.35 51.45 -11.31 6.09 -3.02 13.98 -8.47 15.72 -10.85 1.80 -2.38 1.91 -6.90 0.41 -14.44 -4 -20.13 -15.72 -44.49 -33.47 -69.44 -8.82 -12.36 -14.56 -19.26 -17.29 -20.88 -2.09 -1.22 -2.84 -1.33 -7.25 -1.04 -10.67 0.58 -16.13 2.84 -17.17 7.08 -0.70 2.73 0.70 11.43 2.38 15.26 2.78 6.21 6.26 8.30 13.52 8.12 3.83 -0.06 4.81 0.17 7.13 1.45 3.42 1.91 4.23 2.90 5.39 6.44 1.39 4.41 2.09 10.27 2.09 18.56 0 10.33 0.81 16.24 2.90 22.22 0.99 2.78 1.97 5.51 2.15 6.09 0.23 0.70 -0.93 0.06 -3.48 -1.80 -5.22 -4 -8.12 -4.99 -13.17 -4.64 -4.12 0.29 -9.69 2.55 -16.13 6.55 -2.44 1.51 -2.49 1.51 -1.86 0.29 0.35 -0.70 2.09 -2.96 3.89 -5.05 l3.19 -3.77 -1.28 -1.33 c-3.25 -3.42 -12.47 -6.96 -20.36 -7.77 -4.58 -0.46 -14.21 0 -17.98 0.81 -1.68 0.41 -16.53 -4.99 -16.42 -5.92 0.06 -0.23 0.29 -2.55 0.46 -5.16 0.23 -2.55 0.58 -5.39 0.81 -6.32 l0.46 -1.68 6.21 0.17 6.21 0.17 2.03 -2.03 c1.86 -1.86 2.03 -2.32 2.03 -5.39 0.06 -1.91 0.29 -4.58 0.64 -6.03 0.29 -1.45 0.70 -3.71 0.93 -5.05 0.23 -1.74 0.64 -2.55 1.45 -2.78 1.62 -0.52 2.96 -2.90 2.49 -4.47 -0.17 -0.75 -1.16 -3.13 -2.15 -5.28 -1.51 -3.36 -1.74 -4.70 -1.86 -9.57 -0.17 -5.22 -0.70 -7.54 -2.90 -12.88 -0.23 -0.64 0.17 -1.10 1.33 -1.57 0.99 -0.35 2.26 -1.45 2.84 -2.49 4.23 -6.90 0.06 -15.26 -8.88 -17.92 -8.06 -2.38 -30.40 -3.25 -39.04 -1.45 -14.91 3.07 -23.78 15.31 -22.45 30.98 0.52 5.92 1.62 9.98 4.58 17 3.31 7.72 3.48 8.70 2.67 15.08 -0.75 5.68 -2.67 16.01 -3.02 16.42 -0.12 0.12 -2.84 0.46 -6.03 0.81 -6.67 0.75 -12.53 2.55 -17.40 5.39 -2.84 1.62 -4.18 2.03 -8.06 2.32 -11.37 0.87 -22.22 5.45 -29 12.24 -4.99 4.99 -8.59 11.66 -9.75 17.98 -0.41 2.32 -1.10 4.23 -1.57 4.47 -0.46 0.23 -2.38 1.10 -4.23 1.97 -4.47 2.09 -11.66 7.48 -15.08 11.37 -4.18 4.64 -7.60 10.85 -9.46 17.05 -0.87 3.02 -1.91 5.51 -2.26 5.51 -1.39 0 -3.19 -2.67 -3.19 -4.70 0 -3.19 1.57 -8.47 3.83 -12.76 4.12 -7.83 11.43 -14.97 21.23 -20.88 l4.76 -2.84 1.04 -4.12 c1.80 -7.13 4.23 -11.25 10.04 -17.05 4 -4.06 6.32 -5.86 10.04 -7.77 7.60 -3.89 16.18 -6.44 21.81 -6.44 1.74 0 4.18 -0.75 7.95 -2.55 5.97 -2.84 10.67 -4.23 16.18 -4.81 4.23 -0.41 4.18 -0.29 5.45 -9.05 1.10 -7.08 0.93 -8.06 -2.09 -15.72 -6.09 -15.37 -6.38 -27.67 -1.04 -39.16 3.48 -7.37 12.12 -14.04 21.75 -16.65 7.19 -1.97 34.11 -1.62 42.35 0.58 4.81 1.28 8.24 3.02 11.25 5.86 3.83 3.60 5.45 7.37 5.39 12.82 -0.06 4.52 -0.64 6.44 -2.78 9.57 -1.39 2.03 -1.39 2.09 -0.52 5.80 0.46 2.03 0.87 5.63 0.87 7.95 0 3.31 0.29 4.81 1.45 7.02 3.31 6.55 3.13 12.47 -0.41 15.43 -1.62 1.39 -1.80 1.91 -2.26 6.55 -0.70 7.02 -1.04 8.76 -2.32 11.20 -2.09 4.18 -6.50 6.26 -13.11 6.32 -2.84 0 -3.07 0.12 -3.07 1.39 0 1.22 0.58 1.62 3.36 2.73 3.48 1.39 3.89 1.45 18.97 1.16 5.39 -0.12 8.76 0.12 11.89 0.81 5.45 1.22 15.14 5.86 18.50 8.82 2.55 2.26 2.61 2.26 5.51 1.74 1.62 -0.29 4.18 -0.41 5.74 -0.17 l2.73 0.29 -0.29 -3.89 c-0.17 -2.15 -0.58 -8.70 -0.87 -14.62 -0.93 -16.13 -1.57 -17.40 -8.76 -17.40 -8.47 0 -14.68 -3.77 -18.45 -11.14 -2.20 -4.41 -3.07 -8.88 -3.13 -15.84 -0.06 -5.80 0.52 -7.48 3.77 -10.56 2.44 -2.32 5.16 -3.42 11.37 -4.58 7.66 -1.39 13.69 -1.33 17.23 0.23 3.48 1.57 7.54 5.39 11.20 10.56 1.45 2.09 4 5.45 5.68 7.54 8.06 10.27 19.55 29 26.39 43.22 9.80 20.30 15.20 42.93 12.01 50.29 -3.77 8.47 -22.10 18.74 -42.52 23.73 -11.95 2.90 -21.87 4.06 -33.12 3.89 l-9.92 -0.17 -1.57 7.13 c-2.61 12.07 -7.02 23.67 -11.31 29.87 -3.25 4.76 -4.29 5.39 -5.34 3.13z"/>
  <path d="M242.47 173.56 l0 -13.17 9.11 -7.25 c4.99 -4 18.33 -14.62 29.64 -23.67 11.31 -9.05 20.88 -16.36 21.35 -16.24 1.04 0.23 50.70 39.91 50.70 40.55 0 0.29 -7.31 0.52 -16.24 0.52 l-16.24 0 -9.05 -7.25 -9.11 -7.25 -2.09 1.74 c-9.17 7.54 -57.31 45.25 -57.83 45.25 -0.12 0 -0.23 -5.92 -0.23 -13.23z"/>
  <path d="M368.76 174.78 c-0.41 -0.41 -0.58 -28.83 -0.17 -29.24 0.12 -0.12 4.06 -0.17 8.70 -0.06 l8.47 0.17 0 14.79 0 14.73 -8.30 0 c-4.58 0 -8.53 -0.17 -8.70 -0.41z"/>
  <path d="M397.35 145.60 l0 -22.62 4.81 -0.12 c2.61 -0.06 6.44 -0.17 8.53 -0.17 6.50 -0.06 5.86 -2.73 5.68 22.86 l-0.17 22.39 -9.40 0.17 -9.46 0.12 0 -22.62z"/>
  <path d="M427.17 154.01 c-0.23 -0.46 -0.23 -13.34 -0.12 -28.54 l0.17 -27.73 15.84 -0.17 c8.64 -0.06 15.78 0.06 15.78 0.29 0 0.29 0 13.11 0.06 28.60 l0 28.13 -15.72 0.17 c-13.57 0.12 -15.72 0 -16.01 -0.75z"/>
  <path d="M242.47 130.23 l0 -14.73 10.04 -8.01 c9.98 -7.95 15.02 -11.95 38 -30.16 l11.83 -9.40 11.37 9.11 c6.32 4.99 14.85 11.78 18.97 15.08 4.18 3.31 12.18 9.69 17.81 14.21 l10.33 8.24 0 14.68 c0 11.25 -0.17 14.56 -0.70 14.27 -0.41 -0.23 -6.96 -5.57 -14.62 -11.83 -14.33 -11.60 -39.45 -31.96 -41.88 -33.82 -1.51 -1.16 3.48 -4.93 -40.08 30.51 -11.25 9.17 -20.59 16.65 -20.77 16.65 -0.17 0 -0.29 -6.67 -0.29 -14.79z"/>
  <path d="M487.09 121.24 c-0.17 -1.45 -0.75 -6.15 -1.22 -10.44 -1.80 -15.84 -3.83 -18.62 -11.37 -15.66 -1.57 0.64 -2.90 1.04 -2.90 0.93 0 -0.12 0.41 -1.33 0.87 -2.67 2.67 -7.48 -0.70 -10.56 -13.46 -12.41 -3.54 -0.52 -7.25 -0.93 -8.24 -0.93 -0.99 0 -1.80 -0.23 -1.80 -0.46 0 -0.23 3.13 -0.75 6.96 -1.16 11.78 -1.16 17.40 -3.83 17.40 -8.18 0 -1.16 -0.52 -3.25 -1.16 -4.64 -0.64 -1.39 -1.16 -2.61 -1.16 -2.73 0 -0.12 1.22 0.35 2.67 0.93 1.45 0.64 3.77 1.16 5.16 1.16 2.15 0 2.73 -0.29 3.71 -1.68 1.68 -2.32 2.78 -7.60 3.54 -16.82 0.41 -4.35 0.81 -8.53 0.99 -9.34 0.17 -0.81 0.81 3.07 1.39 8.59 1.62 15.55 3.25 19.61 7.95 19.43 1.28 -0.06 3.42 -0.64 4.76 -1.28 2.09 -0.99 2.38 -1.04 2.03 -0.23 -2.03 5.39 -2.20 6.61 -1.22 8.64 1.33 2.90 5.39 4.58 13.57 5.68 3.60 0.52 7.72 0.93 9.11 0.93 4.52 0 2.78 0.99 -2.44 1.45 -7.54 0.64 -13.92 1.86 -16.82 3.25 -4.12 1.97 -4.81 4.87 -2.55 10.56 0.35 0.93 0.64 1.74 0.64 1.91 0 0.12 -1.33 -0.29 -2.90 -0.93 -8.30 -3.25 -10.09 -0.12 -12.41 21.75 -0.64 5.97 -0.75 6.61 -1.10 4.35z"/>
 </g>
 <g fill="#fefefe">
  <path d="M33.06 483.21 l0 -37.13 10.15 0 10.15 0 0 26.97 0 26.97 19.14 0 19.14 0 0 10.15 0 10.15 -29.29 0 -29.29 0 0 -37.13z"/>
  <path d="M101.34 519.92 c-0.12 -0.29 -0.23 -17 -0.29 -37.18 l-0.06 -36.66 31.32 0 31.27 0 0 9.28 0 9.28 -21 0.12 -21.06 0.17 0 4.64 0 4.64 17.87 0.17 17.81 0.12 0 7.83 0 7.83 -17.98 0 -17.98 0 0 4.93 0 4.93 21.06 0.12 21 0.17 0.17 10.04 0.12 9.98 -30.98 0 c-17.05 0 -31.15 -0.17 -31.27 -0.41z"/>
  <path d="M200.53 519.63 c-1.22 -3.13 -18.50 -42.87 -24.42 -56.21 -4 -9.17 -7.31 -16.82 -7.31 -17 0 -0.23 4.76 -0.29 10.56 -0.23 l10.56 0.17 10.21 23.90 c5.57 13.17 10.27 23.96 10.44 23.96 0.17 0 4.70 -10.50 10.04 -23.38 5.39 -12.88 9.98 -23.73 10.21 -24.13 0.29 -0.46 3.25 -0.64 10.85 -0.52 l10.44 0.17 -12.88 29.87 c-7.08 16.42 -14.27 33.06 -15.95 36.95 l-3.13 7.13 -9.63 0 c-7.19 0 -9.75 -0.17 -9.98 -0.70z"/>
  <path d="M256.86 484.83 c-0.12 -19.55 -0.12 -36.25 0 -37.13 l0.17 -1.62 31.32 0 31.27 0 -0.12 9.34 -0.17 9.34 -21.29 -0.06 -21.35 -0.12 0 4.99 0 4.93 18.27 0 18.27 0 0 7.83 0 7.83 -18.27 0 -18.27 0 0 4.93 c0 4.29 0.12 4.93 1.04 4.93 0.52 0 10.15 0.06 21.29 0.17 l20.30 0.12 0.17 10.04 0.12 9.98 -31.32 0 -31.32 0 -0.12 -35.50z"/>
  <path d="M330.30 483.38 l0.06 -37.01 10.33 -0.17 10.27 -0.12 0 26.97 0 26.97 19.72 0 19.72 0 0 10.15 0 10.15 -30.05 0 -30.11 0 0.06 -36.95z"/>
 </g>
 <g fill="#71469d">
  <path d="M285.11 396.72 c-7.31 -0.70 -18.39 -2.44 -26.92 -4.35 -25.35 -5.68 -53.02 -19.84 -73.15 -37.42 -4.87 -4.29 -5.74 -5.74 -4.41 -7.77 0.52 -0.81 1.45 -1.45 2.03 -1.45 0.58 0 3.25 1.91 5.92 4.23 24.48 21.29 53.48 34.28 88.40 39.62 9.22 1.45 34.69 1.74 44.38 0.58 21.81 -2.67 42.29 -8.82 61.78 -18.45 19.72 -9.80 33.12 -19.37 48.61 -34.80 5.34 -5.39 9.63 -9.17 10.27 -9.17 1.39 0 2.90 1.51 2.90 2.84 0 2.26 -13.75 16.18 -24.36 24.77 -28.37 22.86 -66.48 38.11 -103.25 41.42 -7.77 0.70 -23.84 0.64 -32.19 -0.06z"/>
  <path d="M145.66 310.86 c-2.26 -2.44 -9.86 -17.29 -13.05 -25.47 -5.34 -13.75 -9.17 -29.24 -11.14 -45.25 -1.33 -10.62 -1.33 -31.79 0 -42.29 4.58 -37.36 19.43 -69.73 44.09 -96.06 8.82 -9.40 24.60 -22.57 33.76 -28.08 2.67 -1.68 3.19 -1.80 4.23 -1.10 1.62 0.99 2.15 3.13 1.16 4.29 -0.46 0.52 -3.07 2.49 -5.86 4.35 -22.74 15.31 -42.93 38 -54.64 61.37 -8.01 15.95 -13.69 34.05 -16.42 52.56 -0.81 5.45 -1.04 10.73 -1.04 24.07 0 15.08 0.17 18.10 1.33 25.52 3.48 21.87 9.05 38.58 19.08 56.96 3.54 6.50 4.18 8.18 3.71 9.05 -0.58 1.10 -1.86 1.86 -3.02 1.86 -0.35 0 -1.33 -0.81 -2.20 -1.80z"/>
  <path d="M461.28 296.88 c-1.28 -1.28 -0.75 -3.07 3.02 -10.96 10.50 -21.98 15.02 -42.58 15.08 -68.10 0 -15.95 -1.33 -27.32 -4.76 -41.13 l-1.51 -6.26 1.33 -1.10 c3.48 -2.84 4.81 -0.70 7.48 12.24 2.73 13.05 3.25 18.79 3.25 35.38 0 13.52 -0.17 17.29 -1.28 24.83 -1.57 10.50 -4.52 22.68 -7.72 31.67 -2.44 6.79 -9.22 21.40 -10.79 23.09 -1.10 1.22 -3.13 1.33 -4.12 0.35z"/>
  <path d="M410.81 81.73 c-8.53 -6.55 -24.65 -15.60 -37.47 -21.06 -13.86 -5.92 -36.78 -11.78 -51.39 -13.11 -8.53 -0.75 -27.15 -0.75 -34.86 0 -21.52 2.15 -42.23 8.30 -63.52 18.85 -7.66 3.77 -8.76 4.18 -9.80 3.54 -1.97 -1.28 -1.80 -3.54 0.46 -5.22 2.49 -1.91 15.66 -8.24 24.25 -11.54 48.09 -18.91 101.75 -16.36 148.44 7.08 12.18 6.09 29.35 17.17 30.80 19.84 0.81 1.57 -0.70 4 -2.55 4 -0.70 0 -2.67 -1.10 -4.35 -2.38z"/>
  <path d="M446.66 79.47 c0 -0.29 0.93 -0.58 2.03 -0.58 1.10 0 2.03 0.29 2.03 0.58 0 0.35 -0.93 0.58 -2.03 0.58 -1.10 0 -2.03 -0.23 -2.03 -0.58z"/>
 </g>
</svg>